<?xml version="1.0" encoding="UTF-8" standalone="no"?>
<svg
   width="119.10005"
   height="117.67458"
   version="1.1"
   id="svg1"
   sodipodi:docname="Gpu2d.svg"
   inkscape:version="1.3.2 (091e20e, 2023-11-25, custom)"
   xmlns:inkscape="http://www.inkscape.org/namespaces/inkscape"
   xmlns:sodipodi="http://sodipodi.sourceforge.net/DTD/sodipodi-0.dtd"
   xmlns="http://www.w3.org/2000/svg"
   xmlns:svg="http://www.w3.org/2000/svg">
  <defs
     id="defs1" />
  <sodipodi:namedview
     id="namedview1"
     pagecolor="#ffffff"
     bordercolor="#000000"
     borderopacity="0.25"
     inkscape:showpageshadow="2"
     inkscape:pageopacity="0.0"
     inkscape:pagecheckerboard="0"
     inkscape:deskcolor="#d1d1d1"
     inkscape:zoom="2.8284271"
     inkscape:cx="30.582368"
     inkscape:cy="130.81475"
     inkscape:window-width="2409"
     inkscape:window-height="1855"
     inkscape:window-x="507"
     inkscape:window-y="138"
     inkscape:window-maximized="0"
     inkscape:current-layer="svg1" />
  <ellipse
     cx="59.550026"
     cy="58.837288"
     fill="none"
     stroke="#8da5f3"
     stroke-width="19.7308"
     id="circle1"
     rx="49.684628"
     ry="48.971889"
     style="display:inline" />
  <path
     fill="#8da5f3"
     d="m 78.342847,71.223883 a 14.495211,12.558074 0 0 0 2.000346,-24.986375 21.742816,20.930121 0 0 0 -42.635247,0 14.495211,12.558074 0 0 0 2.000338,24.978002 z m -38.653892,4.186029 a 4.8317383,4.1860256 0 0 0 0,8.372047 4.8317383,4.1860256 0 0 0 0,-8.372047 z m 38.653892,0 a 4.8317383,4.1860256 0 0 0 0,8.372047 4.8317383,4.1860256 0 0 0 0,-8.372047 z m -19.32694,4.186029 a 4.8317387,4.186026 0 0 0 0,8.372051 4.8317387,4.186026 0 0 0 0,-8.372051 z"
     id="path1"
     style="display:inline;stroke-width:4.49732" />
</svg>
