<?xml version="1.0" encoding="UTF-8" standalone="no"?>
<svg
   width="20.650568"
   height="20.403408"
   version="1.1"
   id="svg1"
   sodipodi:docname="Cpu3d.svg"
   inkscape:version="1.3.2 (091e20e, 2023-11-25, custom)"
   xmlns:inkscape="http://www.inkscape.org/namespaces/inkscape"
   xmlns:sodipodi="http://sodipodi.sourceforge.net/DTD/sodipodi-0.dtd"
   xmlns="http://www.w3.org/2000/svg"
   xmlns:svg="http://www.w3.org/2000/svg">
  <defs
     id="defs1" />
  <sodipodi:namedview
     id="namedview1"
     pagecolor="#ffffff"
     bordercolor="#000000"
     borderopacity="0.25"
     inkscape:showpageshadow="2"
     inkscape:pageopacity="0.0"
     inkscape:pagecheckerboard="0"
     inkscape:deskcolor="#d1d1d1"
     inkscape:zoom="40.459766"
     inkscape:cx="9.9234385"
     inkscape:cy="13.099433"
     inkscape:window-width="2409"
     inkscape:window-height="1855"
     inkscape:window-x="4"
     inkscape:window-y="118"
     inkscape:window-maximized="0"
     inkscape:current-layer="svg1" />
  <ellipse
     cx="10.325284"
     cy="10.201704"
     fill="none"
     stroke="#8da5f3"
     stroke-width="3.42109"
     id="circle1"
     rx="8.6147394"
     ry="8.4911594"
     style="display:inline" />
  <path
     style="display:inline;fill:#fc7f7f;fill-opacity:1;stroke-width:0.0247159"
     d="M 9.5531788,20.363762 C 8.1640378,20.257428 6.8729458,19.895932 5.6228699,19.263305 4.5998019,18.74556 3.7644535,18.135155 2.9492953,17.309674 2.5338068,16.888923 2.3263245,16.648036 1.9946093,16.20128 0.42081541,14.081687 -0.26084159,11.394704 0.11375636,8.7872567 0.52869287,5.8990272 2.1382898,3.3635807 4.5848016,1.7444406 5.051502,1.4355709 5.2707685,1.309865 5.7695652,1.0652133 7.3281691,0.30074368 8.9852178,-0.04158316 10.788495,0.02836117 c 3.271445,0.12689062 6.317994,1.83597063 8.144187,4.56879833 1.040181,1.5565908 1.611812,3.3022742 1.690585,5.1628163 0.100921,2.3836422 -0.612153,4.6584972 -2.056015,6.5591172 -1.96155,2.582078 -5.044273,4.093137 -8.299189,4.068016 -0.250715,-0.0019 -0.5724133,-0.01244 -0.7148842,-0.02335 z M 10.67324,16.299564 c 0.186073,-0.09201 0.366758,-0.288447 0.437162,-0.475284 0.04423,-0.117387 0.05185,-0.180634 0.04388,-0.364477 -0.0085,-0.194949 -0.01989,-0.241593 -0.09253,-0.377371 -0.09891,-0.184873 -0.229903,-0.309372 -0.418579,-0.39784 -0.119924,-0.05623 -0.170986,-0.06506 -0.373705,-0.0646 -0.207499,4.73e-4 -0.250607,0.0086 -0.3707384,0.06957 -0.1870839,0.09501 -0.3533345,0.2651 -0.4361237,0.446203 -0.058104,0.127104 -0.069116,0.184298 -0.069526,0.36111 -4.295e-4,0.185305 0.00865,0.229034 0.076946,0.370738 0.1148457,0.238276 0.2810266,0.392637 0.5110677,0.474719 0.1958974,0.0699 0.5026224,0.05094 0.6921534,-0.04277 z M 6.8963851,15.494665 C 7.2810077,15.423565 7.5479161,15.156514 7.624765,14.765899 7.678255,14.494012 7.58298,14.193129 7.3784888,13.988149 7.1571264,13.766258 6.8449595,13.677015 6.5471911,13.750496 6.1200673,13.8559 5.8590358,14.191607 5.860564,14.633555 c 0.00144,0.415905 0.2850906,0.761082 0.7015105,0.85367 0.1756528,0.03905 0.1646196,0.03881 0.3343106,0.0074 z m 7.2460999,-0.05192 c 0.172455,-0.06357 0.362931,-0.239718 0.459852,-0.42526 0.07327,-0.140268 0.07881,-0.168229 0.07886,-0.398025 6.4e-5,-0.298225 -0.04395,-0.413843 -0.234049,-0.614848 -0.431193,-0.455922 -1.186235,-0.331788 -1.449557,0.238318 -0.06177,0.133733 -0.07117,0.183537 -0.07117,0.377049 0,0.202112 0.0076,0.238395 0.08123,0.387975 0.209325,0.425199 0.675901,0.60396 1.134828,0.434791 z m 0.118596,-2.78557 c 0.528611,-0.109676 0.935874,-0.332964 1.334659,-0.73175 0.407654,-0.407653 0.615069,-0.790861 0.730122,-1.348932 0.07259,-0.352104 0.05892,-0.8374743 -0.03349,-1.1895354 C 16.098306,8.6476839 15.576,8.0082321 14.8903,7.6704259 14.698174,7.5757761 14.398852,7.4749218 14.238868,7.4509309 14.141758,7.4363682 14.122506,7.4240533 14.110283,7.3686778 13.931391,6.5582114 13.640329,5.9235978 13.184884,5.3509948 13.021558,5.1456553 12.641754,4.7809409 12.419746,4.6162558 10.669177,3.31769 8.2775624,3.7798664 7.0189961,5.6599437 6.725502,6.0983724 6.4603594,6.7231167 6.350292,7.2355831 6.31143,7.4165233 6.300323,7.4394894 6.251682,7.4394894 c -0.1099423,0 -0.4985242,0.1270323 -0.7194098,0.2351842 -0.9967326,0.4880285 -1.5930243,1.562079 -1.4714489,2.6503984 0.038857,0.34784 0.1052564,0.580595 0.2530692,0.887104 0.3780266,0.783886 1.0976506,1.320706 1.9763075,1.474272 0.033984,0.0059 1.7912857,0.01217 3.905113,0.01384 3.663053,0.0029 3.853759,8.76e-4 4.065769,-0.04311 z"
     id="path3" />
</svg>
