<?xml version="1.0" encoding="UTF-8" standalone="no"?>
<svg
   width="20.650568"
   height="20.403408"
   version="1.1"
   id="svg1"
   sodipodi:docname="Gpu3d.svg"
   inkscape:version="1.3.2 (091e20e, 2023-11-25, custom)"
   xmlns:inkscape="http://www.inkscape.org/namespaces/inkscape"
   xmlns:sodipodi="http://sodipodi.sourceforge.net/DTD/sodipodi-0.dtd"
   xmlns="http://www.w3.org/2000/svg"
   xmlns:svg="http://www.w3.org/2000/svg">
  <defs
     id="defs1" />
  <sodipodi:namedview
     id="namedview1"
     pagecolor="#ffffff"
     bordercolor="#000000"
     borderopacity="0.25"
     inkscape:showpageshadow="2"
     inkscape:pageopacity="0.0"
     inkscape:pagecheckerboard="0"
     inkscape:deskcolor="#d1d1d1"
     inkscape:zoom="45.254834"
     inkscape:cx="10.197806"
     inkscape:cy="10.363534"
     inkscape:window-width="2409"
     inkscape:window-height="1855"
     inkscape:window-x="507"
     inkscape:window-y="138"
     inkscape:window-maximized="0"
     inkscape:current-layer="svg1" />
  <path
     fill="#8da5f3"
     d="m 13.583741,12.349396 a 2.5133019,2.1774248 0 0 0 0.346837,-4.3323486 3.7699529,3.6290412 0 0 0 -7.3924591,0 2.5133019,2.1774248 0 0 0 0.3468356,4.3308966 z m -6.7021376,0.725809 a 0.83776755,0.72580845 0 0 0 0,1.451616 0.83776755,0.72580845 0 0 0 0,-1.451616 z m 6.7021376,0 a 0.83776755,0.72580845 0 0 0 0,1.451616 0.83776755,0.72580845 0 0 0 0,-1.451616 z m -3.351068,0.725809 a 0.83776761,0.7258085 0 0 0 0,1.451617 0.83776761,0.7258085 0 0 0 0,-1.451617 z"
     id="path1"
     style="display:inline;fill:#fc7f7f;fill-opacity:1" />
  <path
     style="display:inline;fill:#fc7f7f;fill-opacity:1;stroke-width:0.0220971"
     d="M 9.8332037,20.381208 C 7.7106439,20.257532 5.8097537,19.580889 4.1432038,18.355792 3.4204772,17.824508 2.6467674,17.061477 2.0899138,16.330841 0.97366995,14.86624 0.30260429,13.197608 0.07219771,11.313708 0.00895705,10.796626 0.0036905,9.6905727 0.06201728,9.1756662 0.19946059,7.9623222 0.50327203,6.8937822 1.0153791,5.8225824 2.4952207,2.7271241 5.5288379,0.54553487 8.9714173,0.10109294 c 0.917998,-0.11851486 1.9840487,-0.11020756 2.8836697,0.0224713 3.037534,0.44798467 5.745219,2.24291176 7.322281,4.85394646 2.015853,3.3375128 1.93782,7.5055893 -0.201571,10.7666633 -1.280876,1.95244 -3.194252,3.407971 -5.441331,4.139293 -1.169809,0.380719 -2.542198,0.565276 -3.7012623,0.497741 z m 1.3700193,-3.443515 c 1.156799,-0.154887 2.192022,-0.552205 3.121242,-1.197934 1.293484,-0.89886 2.245342,-2.233933 2.667225,-3.741041 0.341907,-1.22141 0.325969,-2.523094 -0.04595,-3.7524292 C 16.713725,7.4793756 16.281756,6.6597526 15.767358,6.0104076 15.540557,5.7241081 14.987051,5.1692073 14.705611,4.945985 13.120821,3.6890176 11.130992,3.1774305 9.1371454,3.5143267 6.392914,3.9780141 4.1779342,6.0521713 3.5800012,8.7181628 3.4533873,9.2826936 3.4276301,9.5295892 3.4267919,10.186757 c -6.6e-4,0.517647 0.00654,0.657046 0.048626,0.940966 0.2105923,1.420814 0.8331607,2.697972 1.8179726,3.729452 1.1490152,1.203463 2.7191584,1.950557 4.4403763,2.112788 0.3014712,0.02841 1.1564512,0.0096 1.4694562,-0.03227 z"
     id="path6" />
</svg>
