<?xml version="1.0" encoding="UTF-8" standalone="no"?>
<svg
   width="20.650568"
   height="20.403408"
   version="1.1"
   id="svg1"
   sodipodi:docname="Cpu2d.svg"
   inkscape:version="1.3.2 (091e20e, 2023-11-25, custom)"
   xmlns:inkscape="http://www.inkscape.org/namespaces/inkscape"
   xmlns:sodipodi="http://sodipodi.sourceforge.net/DTD/sodipodi-0.dtd"
   xmlns="http://www.w3.org/2000/svg"
   xmlns:svg="http://www.w3.org/2000/svg">
  <defs
     id="defs1" />
  <sodipodi:namedview
     id="namedview1"
     pagecolor="#ffffff"
     bordercolor="#000000"
     borderopacity="0.25"
     inkscape:showpageshadow="2"
     inkscape:pageopacity="0.0"
     inkscape:pagecheckerboard="0"
     inkscape:deskcolor="#d1d1d1"
     inkscape:zoom="40.459766"
     inkscape:cx="9.9234385"
     inkscape:cy="13.099433"
     inkscape:window-width="2409"
     inkscape:window-height="1855"
     inkscape:window-x="4"
     inkscape:window-y="118"
     inkscape:window-maximized="0"
     inkscape:current-layer="svg1" />
  <ellipse
     cx="10.325284"
     cy="10.201704"
     fill="none"
     stroke="#8da5f3"
     stroke-width="3.42109"
     id="circle1"
     rx="8.6147394"
     ry="8.4911594"
     style="display:inline" />
  <path
     fill="#8da5f3"
     d="M 6.1441229,1.0213083 A 0.92500578,0.92500578 0 0 0 5.2191172,1.9463141 V 2.6727585 H 3.7662286 A 0.92500578,0.92500578 0 0 0 2.8412229,3.5977642 V 5.0506528 H 2.1147785 A 0.92500578,0.92500578 0 0 0 1.1897727,5.9756586 V 6.4599548 A 0.92500578,0.92500578 0 0 0 2.1147785,7.3849605 H 2.8412229 V 12.833293 H 2.1147785 a 0.92500578,0.92500578 0 0 0 -0.9250058,0.925006 v 0.484296 A 0.92500578,0.92500578 0 0 0 2.1147785,15.1676 h 0.7264444 v 1.452889 a 0.92500578,0.92500578 0 0 0 0.9250057,0.925006 h 1.4528886 v 0.726444 a 0.92500578,0.92500578 0 0 0 0.9250057,0.925006 h 0.4842962 a 0.92500578,0.92500578 0 0 0 0.9250062,-0.925006 v -0.726444 h 5.4483317 v 0.726444 a 0.92500578,0.92500578 0 0 0 0.925006,0.925006 h 0.484296 a 0.92500578,0.92500578 0 0 0 0.925005,-0.925006 v -0.726444 h 1.452889 A 0.92500578,0.92500578 0 0 0 17.71396,16.620489 V 15.1676 h 0.726443 a 0.92500578,0.92500578 0 0 0 0.925006,-0.925005 V 13.758299 A 0.92500578,0.92500578 0 0 0 18.440403,12.833293 H 17.71396 V 7.3849605 h 0.726443 A 0.92500578,0.92500578 0 0 0 19.365409,6.4599548 V 5.9756586 A 0.92500578,0.92500578 0 0 0 18.440403,5.0506528 H 17.71396 V 3.5977642 A 0.92500578,0.92500578 0 0 0 16.788953,2.6739692 H 15.336064 V 1.9475249 A 0.92500578,0.92500578 0 0 0 14.411059,1.0225191 H 13.926763 A 0.92500578,0.92500578 0 0 0 13.001757,1.9475249 V 2.6739692 H 7.5534253 V 1.9475249 A 0.92500578,0.92500578 0 0 0 6.6284191,1.0225191 Z M 14.104742,7.4382331 A 2.6466788,2.6466788 0 0 1 13.741519,12.703743 H 6.6829025 a 2.6466788,2.6466788 0 0 1 -0.3632222,-5.2655099 3.9712289,4.4119384 0 0 1 7.7899047,0 z M 6.7470718,13.734084 a 0.88323521,0.88323521 0 0 1 0,1.76647 0.88323521,0.88323521 0 0 1 0,-1.76647 z m 7.0586172,0 a 0.88323521,0.88323521 0 0 1 0,1.76647 0.88323521,0.88323521 0 0 1 0,-1.76647 z m -3.528098,0.88263 a 0.88323528,0.88323528 0 0 1 0,1.76647 0.88384066,0.88384066 0 0 1 0,-1.767681 z"
     id="path1-4"
     style="display:inline;stroke-width:1.21074" />
</svg>
